%TF.GenerationSoftware,KiCad,Pcbnew,9.0.2*%
%TF.CreationDate,2025-07-07T10:10:20-04:00*%
%TF.ProjectId,jukebox,6a756b65-626f-4782-9e6b-696361645f70,rev?*%
%TF.SameCoordinates,Original*%
%TF.FileFunction,Copper,L2,Bot*%
%TF.FilePolarity,Positive*%
%FSLAX46Y46*%
G04 Gerber Fmt 4.6, Leading zero omitted, Abs format (unit mm)*
G04 Created by KiCad (PCBNEW 9.0.2) date 2025-07-07 10:10:20*
%MOMM*%
%LPD*%
G01*
G04 APERTURE LIST*
%TA.AperFunction,ComponentPad*%
%ADD10O,1.600000X1.600000*%
%TD*%
%TA.AperFunction,ComponentPad*%
%ADD11R,1.600000X1.600000*%
%TD*%
%TA.AperFunction,ComponentPad*%
%ADD12C,2.000000*%
%TD*%
%TA.AperFunction,ComponentPad*%
%ADD13C,1.400000*%
%TD*%
%TA.AperFunction,ComponentPad*%
%ADD14R,2.000000X2.000000*%
%TD*%
%TA.AperFunction,ComponentPad*%
%ADD15R,1.070000X1.800000*%
%TD*%
%TA.AperFunction,ComponentPad*%
%ADD16O,1.070000X1.800000*%
%TD*%
%TA.AperFunction,Conductor*%
%ADD17C,0.500000*%
%TD*%
%TA.AperFunction,Conductor*%
%ADD18C,0.200000*%
%TD*%
G04 APERTURE END LIST*
D10*
%TO.P,A1,32,SCL/A5*%
%TO.N,unconnected-(A1-SCL{slash}A5-Pad32)*%
X148315000Y-89130000D03*
%TO.P,A1,31,SDA/A4*%
%TO.N,unconnected-(A1-SDA{slash}A4-Pad31)*%
X145775000Y-89130000D03*
%TO.P,A1,30,AREF*%
%TO.N,unconnected-(A1-AREF-Pad30)*%
X143235000Y-89130000D03*
%TO.P,A1,29,GND*%
%TO.N,/GND*%
X140695000Y-89130000D03*
%TO.P,A1,28,D13*%
%TO.N,/D13*%
X138155000Y-89130000D03*
%TO.P,A1,27,D12*%
%TO.N,unconnected-(A1-D12-Pad27)*%
X135615000Y-89130000D03*
%TO.P,A1,26,D11*%
%TO.N,/D11*%
X133075000Y-89130000D03*
%TO.P,A1,25,D10*%
%TO.N,/D10*%
X130535000Y-89130000D03*
%TO.P,A1,24,D9*%
%TO.N,unconnected-(A1-D9-Pad24)*%
X127995000Y-89130000D03*
%TO.P,A1,23,D8*%
%TO.N,unconnected-(A1-D8-Pad23)*%
X125455000Y-89130000D03*
%TO.P,A1,22,D7*%
%TO.N,Net-(A1-A1)*%
X121395000Y-89130000D03*
%TO.P,A1,21,D6*%
%TO.N,/D6*%
X118855000Y-89130000D03*
%TO.P,A1,20,D5*%
%TO.N,/D5*%
X116315000Y-89130000D03*
%TO.P,A1,19,D4*%
%TO.N,unconnected-(A1-D4-Pad19)*%
X113775000Y-89130000D03*
%TO.P,A1,18,D3*%
%TO.N,/D3*%
X111235000Y-89130000D03*
%TO.P,A1,17,D2*%
%TO.N,/D2*%
X108695000Y-89130000D03*
%TO.P,A1,16,D1/TX*%
%TO.N,unconnected-(A1-D1{slash}TX-Pad16)*%
X106155000Y-89130000D03*
%TO.P,A1,15,D0/RX*%
%TO.N,unconnected-(A1-D0{slash}RX-Pad15)*%
X103615000Y-89130000D03*
%TO.P,A1,14,SCL/A5*%
%TO.N,unconnected-(A1-SCL{slash}A5-Pad14)*%
X103615000Y-40870000D03*
%TO.P,A1,13,SDA/A4*%
%TO.N,unconnected-(A1-SDA{slash}A4-Pad13)*%
X106155000Y-40870000D03*
%TO.P,A1,12,A3*%
%TO.N,unconnected-(A1-A3-Pad12)*%
X108695000Y-40870000D03*
%TO.P,A1,11,A2*%
%TO.N,unconnected-(A1-A2-Pad11)*%
X111235000Y-40870000D03*
%TO.P,A1,10,A1*%
%TO.N,Net-(A1-A1)*%
X113775000Y-40870000D03*
%TO.P,A1,9,A0*%
%TO.N,unconnected-(A1-A0-Pad9)*%
X116315000Y-40870000D03*
%TO.P,A1,8,VIN*%
%TO.N,unconnected-(A1-VIN-Pad8)*%
X121395000Y-40870000D03*
%TO.P,A1,7,GND*%
%TO.N,/GND*%
X123935000Y-40870000D03*
%TO.P,A1,6,GND*%
X126475000Y-40870000D03*
%TO.P,A1,5,+5V*%
%TO.N,/VDD*%
X129015000Y-40870000D03*
%TO.P,A1,4,3V3*%
%TO.N,unconnected-(A1-3V3-Pad4)*%
X131555000Y-40870000D03*
%TO.P,A1,3,~{RESET}*%
%TO.N,unconnected-(A1-~{RESET}-Pad3)*%
X134095000Y-40870000D03*
%TO.P,A1,2,IOREF*%
%TO.N,unconnected-(A1-IOREF-Pad2)*%
X136635000Y-40870000D03*
D11*
%TO.P,A1,1,NC*%
%TO.N,unconnected-(A1-NC-Pad1)*%
X139175000Y-40870000D03*
%TD*%
D12*
%TO.P,SW3,1,1*%
%TO.N,/D7*%
X114500000Y-49000000D03*
X121000000Y-49000000D03*
%TO.P,SW3,2,2*%
%TO.N,/GND*%
X114500000Y-53500000D03*
X121000000Y-53500000D03*
%TD*%
%TO.P,SW2,1,1*%
%TO.N,/D10*%
X128250000Y-48750000D03*
X134750000Y-48750000D03*
%TO.P,SW2,2,2*%
%TO.N,/GND*%
X128250000Y-53250000D03*
X134750000Y-53250000D03*
%TD*%
%TO.P,SW4,1,1*%
%TO.N,/D2*%
X103250000Y-48750000D03*
X109750000Y-48750000D03*
%TO.P,SW4,2,2*%
%TO.N,/GND*%
X103250000Y-53250000D03*
X109750000Y-53250000D03*
%TD*%
D13*
%TO.P,R4,1*%
%TO.N,/D6*%
X127500000Y-68500000D03*
%TO.P,R4,2*%
%TO.N,Net-(D1-RA)*%
X119880000Y-68500000D03*
%TD*%
%TO.P,R6,1*%
%TO.N,/D3*%
X127500000Y-62200000D03*
%TO.P,R6,2*%
%TO.N,Net-(D1-BA)*%
X119880000Y-62200000D03*
%TD*%
%TO.P,R5,1*%
%TO.N,/D5*%
X127500000Y-65350000D03*
%TO.P,R5,2*%
%TO.N,Net-(D1-GA)*%
X119880000Y-65350000D03*
%TD*%
D14*
%TO.P,BZ1,1,+*%
%TO.N,/D11*%
X133500000Y-79000000D03*
D12*
%TO.P,BZ1,2,-*%
%TO.N,/GND*%
X141100000Y-79000000D03*
%TD*%
%TO.P,SW1,1,1*%
%TO.N,/D13*%
X141750000Y-48750000D03*
X148250000Y-48750000D03*
%TO.P,SW1,2,2*%
%TO.N,/GND*%
X141750000Y-53250000D03*
X148250000Y-53250000D03*
%TD*%
D15*
%TO.P,D1,1,RA*%
%TO.N,Net-(D1-RA)*%
X110730000Y-65000000D03*
D16*
%TO.P,D1,2,K*%
%TO.N,/GND*%
X112000000Y-65000000D03*
%TO.P,D1,3,GA*%
%TO.N,Net-(D1-GA)*%
X113270000Y-65000000D03*
%TO.P,D1,4,BA*%
%TO.N,Net-(D1-BA)*%
X114540000Y-65000000D03*
%TD*%
D17*
%TO.N,/GND*%
X126500000Y-51500000D02*
X126500000Y-54500000D01*
X126475000Y-51475000D02*
X126500000Y-51500000D01*
X123935000Y-53935000D02*
X124000000Y-54000000D01*
X123935000Y-50000000D02*
X123935000Y-50565000D01*
X123935000Y-50000000D02*
X123935000Y-53935000D01*
X123935000Y-40870000D02*
X123935000Y-50000000D01*
X126475000Y-40870000D02*
X126475000Y-51475000D01*
X141100000Y-88725000D02*
X140695000Y-89130000D01*
X141100000Y-79000000D02*
X141100000Y-88725000D01*
D18*
X109750000Y-55250000D02*
X109500000Y-55500000D01*
X109750000Y-53250000D02*
X109750000Y-55250000D01*
X120000000Y-54500000D02*
X120000000Y-55500000D01*
X121000000Y-53500000D02*
X120000000Y-54500000D01*
X141750000Y-54750000D02*
X140695000Y-55805000D01*
X141750000Y-53250000D02*
X141750000Y-54750000D01*
X134750000Y-53250000D02*
X136500000Y-55000000D01*
D17*
%TO.N,/D3*%
X127500000Y-63189949D02*
X111235000Y-79454949D01*
X111235000Y-79454949D02*
X111235000Y-89130000D01*
X127500000Y-62200000D02*
X127500000Y-63189949D01*
%TO.N,/D5*%
X127500000Y-65350000D02*
X116315000Y-76535000D01*
X116315000Y-76535000D02*
X116315000Y-89130000D01*
%TO.N,/D6*%
X127500000Y-68500000D02*
X127500000Y-80485000D01*
X127500000Y-80485000D02*
X118855000Y-89130000D01*
%TD*%
%TA.AperFunction,Conductor*%
%TO.N,/GND*%
G36*
X102361874Y-52008320D02*
G01*
X103079766Y-52726212D01*
X103037708Y-52737482D01*
X102912292Y-52809890D01*
X102809890Y-52912292D01*
X102737482Y-53037708D01*
X102726212Y-53079766D01*
X102027340Y-52380894D01*
X101967084Y-52463830D01*
X101859897Y-52674197D01*
X101786934Y-52898752D01*
X101750000Y-53131947D01*
X101750000Y-53368052D01*
X101786934Y-53601247D01*
X101859897Y-53825802D01*
X101967087Y-54036174D01*
X102027338Y-54119104D01*
X102027340Y-54119105D01*
X102726212Y-53420233D01*
X102737482Y-53462292D01*
X102809890Y-53587708D01*
X102912292Y-53690110D01*
X103037708Y-53762518D01*
X103079765Y-53773787D01*
X102380893Y-54472658D01*
X102463828Y-54532914D01*
X102674197Y-54640102D01*
X102898752Y-54713065D01*
X102898751Y-54713065D01*
X103131948Y-54750000D01*
X103368052Y-54750000D01*
X103601247Y-54713065D01*
X103825802Y-54640102D01*
X104036163Y-54532918D01*
X104036169Y-54532914D01*
X104119104Y-54472658D01*
X104119105Y-54472658D01*
X103420233Y-53773787D01*
X103462292Y-53762518D01*
X103587708Y-53690110D01*
X103690110Y-53587708D01*
X103762518Y-53462292D01*
X103773787Y-53420234D01*
X104472658Y-54119105D01*
X104472658Y-54119104D01*
X104532914Y-54036169D01*
X104532918Y-54036163D01*
X104640102Y-53825802D01*
X104713065Y-53601247D01*
X104750000Y-53368052D01*
X104750000Y-53131947D01*
X104713065Y-52898752D01*
X104640102Y-52674197D01*
X104532914Y-52463828D01*
X104472658Y-52380894D01*
X104472658Y-52380893D01*
X103773787Y-53079765D01*
X103762518Y-53037708D01*
X103690110Y-52912292D01*
X103587708Y-52809890D01*
X103462292Y-52737482D01*
X103420234Y-52726212D01*
X104138126Y-52008320D01*
X104153363Y-52000000D01*
X108848928Y-52000000D01*
X108861874Y-52008320D01*
X109579766Y-52726212D01*
X109537708Y-52737482D01*
X109412292Y-52809890D01*
X109309890Y-52912292D01*
X109237482Y-53037708D01*
X109226212Y-53079766D01*
X108527340Y-52380894D01*
X108467084Y-52463830D01*
X108359897Y-52674197D01*
X108286934Y-52898752D01*
X108250000Y-53131947D01*
X108250000Y-53368052D01*
X108286934Y-53601247D01*
X108359897Y-53825802D01*
X108467087Y-54036174D01*
X108527338Y-54119104D01*
X108527340Y-54119105D01*
X109226212Y-53420233D01*
X109237482Y-53462292D01*
X109309890Y-53587708D01*
X109412292Y-53690110D01*
X109537708Y-53762518D01*
X109579765Y-53773787D01*
X108880893Y-54472658D01*
X108963828Y-54532914D01*
X109174197Y-54640102D01*
X109398752Y-54713065D01*
X109398751Y-54713065D01*
X109631948Y-54750000D01*
X109868052Y-54750000D01*
X110101247Y-54713065D01*
X110325802Y-54640102D01*
X110473369Y-54564914D01*
X110536163Y-54532918D01*
X110536169Y-54532914D01*
X110619104Y-54472658D01*
X110619105Y-54472658D01*
X109920233Y-53773787D01*
X109962292Y-53762518D01*
X110087708Y-53690110D01*
X110190110Y-53587708D01*
X110262518Y-53462292D01*
X110273787Y-53420233D01*
X110972658Y-54119105D01*
X110972658Y-54119104D01*
X111032914Y-54036169D01*
X111032918Y-54036163D01*
X111140102Y-53825802D01*
X111213065Y-53601247D01*
X111249998Y-53368061D01*
X111250000Y-53368042D01*
X111250000Y-53131947D01*
X111213065Y-52898752D01*
X111140102Y-52674197D01*
X111032914Y-52463828D01*
X110972658Y-52380894D01*
X110972658Y-52380893D01*
X110273787Y-53079765D01*
X110262518Y-53037708D01*
X110190110Y-52912292D01*
X110087708Y-52809890D01*
X109962292Y-52737482D01*
X109920234Y-52726212D01*
X110638126Y-52008320D01*
X110653363Y-52000000D01*
X110805168Y-52000000D01*
X113630988Y-52000000D01*
X113698027Y-52019685D01*
X113743782Y-52072489D01*
X113753726Y-52141647D01*
X113724701Y-52205203D01*
X113703873Y-52224318D01*
X113630894Y-52277339D01*
X113630894Y-52277340D01*
X114329766Y-52976212D01*
X114287708Y-52987482D01*
X114162292Y-53059890D01*
X114059890Y-53162292D01*
X113987482Y-53287708D01*
X113976212Y-53329766D01*
X113277340Y-52630894D01*
X113217084Y-52713830D01*
X113109897Y-52924197D01*
X113036934Y-53148752D01*
X113000000Y-53381947D01*
X113000000Y-53618052D01*
X113036934Y-53851247D01*
X113109897Y-54075802D01*
X113217087Y-54286174D01*
X113277338Y-54369104D01*
X113277340Y-54369105D01*
X113976212Y-53670233D01*
X113987482Y-53712292D01*
X114059890Y-53837708D01*
X114162292Y-53940110D01*
X114287708Y-54012518D01*
X114329765Y-54023787D01*
X113630893Y-54722658D01*
X113713828Y-54782914D01*
X113924197Y-54890102D01*
X114148752Y-54963065D01*
X114148751Y-54963065D01*
X114381948Y-55000000D01*
X114618052Y-55000000D01*
X114851247Y-54963065D01*
X115075802Y-54890102D01*
X115286163Y-54782918D01*
X115286169Y-54782914D01*
X115369104Y-54722658D01*
X115369105Y-54722658D01*
X114670233Y-54023787D01*
X114712292Y-54012518D01*
X114837708Y-53940110D01*
X114940110Y-53837708D01*
X115012518Y-53712292D01*
X115023787Y-53670234D01*
X115722658Y-54369105D01*
X115722658Y-54369104D01*
X115782914Y-54286169D01*
X115782918Y-54286163D01*
X115890102Y-54075802D01*
X115963065Y-53851247D01*
X116000000Y-53618052D01*
X116000000Y-53381947D01*
X115963065Y-53148752D01*
X115890102Y-52924197D01*
X115782914Y-52713828D01*
X115722658Y-52630894D01*
X115722658Y-52630893D01*
X115023787Y-53329765D01*
X115012518Y-53287708D01*
X114940110Y-53162292D01*
X114837708Y-53059890D01*
X114712292Y-52987482D01*
X114670234Y-52976212D01*
X115369105Y-52277340D01*
X115369104Y-52277339D01*
X115296127Y-52224318D01*
X115253461Y-52168989D01*
X115247482Y-52099375D01*
X115280087Y-52037580D01*
X115340926Y-52003223D01*
X115369012Y-52000000D01*
X120130988Y-52000000D01*
X120198027Y-52019685D01*
X120243782Y-52072489D01*
X120253726Y-52141647D01*
X120224701Y-52205203D01*
X120203873Y-52224318D01*
X120130894Y-52277339D01*
X120130894Y-52277340D01*
X120829766Y-52976212D01*
X120787708Y-52987482D01*
X120662292Y-53059890D01*
X120559890Y-53162292D01*
X120487482Y-53287708D01*
X120476212Y-53329766D01*
X119777340Y-52630894D01*
X119717084Y-52713830D01*
X119609897Y-52924197D01*
X119536934Y-53148752D01*
X119500000Y-53381947D01*
X119500000Y-53618052D01*
X119536934Y-53851247D01*
X119609897Y-54075802D01*
X119717087Y-54286174D01*
X119777338Y-54369104D01*
X119777340Y-54369105D01*
X120476212Y-53670233D01*
X120487482Y-53712292D01*
X120559890Y-53837708D01*
X120662292Y-53940110D01*
X120787708Y-54012518D01*
X120829765Y-54023787D01*
X120130893Y-54722658D01*
X120213828Y-54782914D01*
X120424197Y-54890102D01*
X120648752Y-54963065D01*
X120648751Y-54963065D01*
X120881948Y-55000000D01*
X121118052Y-55000000D01*
X121351247Y-54963065D01*
X121575802Y-54890102D01*
X121786163Y-54782918D01*
X121786169Y-54782914D01*
X121869104Y-54722658D01*
X121869105Y-54722658D01*
X121170233Y-54023787D01*
X121212292Y-54012518D01*
X121337708Y-53940110D01*
X121440110Y-53837708D01*
X121512518Y-53712292D01*
X121523787Y-53670234D01*
X122222658Y-54369105D01*
X122222659Y-54369104D01*
X122234713Y-54352514D01*
X122234713Y-54352513D01*
X122282914Y-54286169D01*
X122282918Y-54286163D01*
X122390102Y-54075802D01*
X122463065Y-53851247D01*
X122500000Y-53618052D01*
X122500000Y-53381947D01*
X122463066Y-53148756D01*
X122463065Y-53148752D01*
X122390102Y-52924197D01*
X122282914Y-52713828D01*
X122222658Y-52630894D01*
X122222658Y-52630893D01*
X121523787Y-53329765D01*
X121512518Y-53287708D01*
X121440110Y-53162292D01*
X121337708Y-53059890D01*
X121212292Y-52987482D01*
X121170234Y-52976212D01*
X121869105Y-52277340D01*
X121869104Y-52277339D01*
X121796127Y-52224318D01*
X121753461Y-52168989D01*
X121747482Y-52099375D01*
X121780087Y-52037580D01*
X121840926Y-52003223D01*
X121869012Y-52000000D01*
X127194832Y-52000000D01*
X127348928Y-52000000D01*
X127361874Y-52008320D01*
X128079766Y-52726212D01*
X128037708Y-52737482D01*
X127912292Y-52809890D01*
X127809890Y-52912292D01*
X127737482Y-53037708D01*
X127726212Y-53079766D01*
X127027340Y-52380894D01*
X126967084Y-52463830D01*
X126859897Y-52674197D01*
X126786934Y-52898752D01*
X126750000Y-53131947D01*
X126750000Y-53368052D01*
X126786934Y-53601247D01*
X126859897Y-53825802D01*
X126967087Y-54036174D01*
X127027338Y-54119104D01*
X127027340Y-54119105D01*
X127726212Y-53420233D01*
X127737482Y-53462292D01*
X127809890Y-53587708D01*
X127912292Y-53690110D01*
X128037708Y-53762518D01*
X128079765Y-53773787D01*
X127380893Y-54472658D01*
X127463828Y-54532914D01*
X127674197Y-54640102D01*
X127898752Y-54713065D01*
X127898751Y-54713065D01*
X128131948Y-54750000D01*
X128368052Y-54750000D01*
X128601247Y-54713065D01*
X128825802Y-54640102D01*
X129036163Y-54532918D01*
X129036169Y-54532914D01*
X129119104Y-54472658D01*
X129119105Y-54472658D01*
X128420233Y-53773787D01*
X128462292Y-53762518D01*
X128587708Y-53690110D01*
X128690110Y-53587708D01*
X128762518Y-53462292D01*
X128773787Y-53420234D01*
X129472658Y-54119105D01*
X129472658Y-54119104D01*
X129532914Y-54036169D01*
X129532918Y-54036163D01*
X129640102Y-53825802D01*
X129713065Y-53601247D01*
X129750000Y-53368052D01*
X129750000Y-53131947D01*
X129713065Y-52898752D01*
X129640102Y-52674197D01*
X129532914Y-52463828D01*
X129472658Y-52380894D01*
X129472658Y-52380893D01*
X128773787Y-53079765D01*
X128762518Y-53037708D01*
X128690110Y-52912292D01*
X128587708Y-52809890D01*
X128462292Y-52737482D01*
X128420234Y-52726212D01*
X129138126Y-52008320D01*
X129153363Y-52000000D01*
X133848928Y-52000000D01*
X133861874Y-52008320D01*
X134579766Y-52726212D01*
X134537708Y-52737482D01*
X134412292Y-52809890D01*
X134309890Y-52912292D01*
X134237482Y-53037708D01*
X134226212Y-53079766D01*
X133527340Y-52380894D01*
X133467084Y-52463830D01*
X133359897Y-52674197D01*
X133286934Y-52898752D01*
X133250000Y-53131947D01*
X133250000Y-53368052D01*
X133286934Y-53601247D01*
X133359897Y-53825802D01*
X133467087Y-54036174D01*
X133527338Y-54119104D01*
X133527340Y-54119105D01*
X134226212Y-53420233D01*
X134237482Y-53462292D01*
X134309890Y-53587708D01*
X134412292Y-53690110D01*
X134537708Y-53762518D01*
X134579765Y-53773787D01*
X133880893Y-54472658D01*
X133963828Y-54532914D01*
X134174197Y-54640102D01*
X134398752Y-54713065D01*
X134398751Y-54713065D01*
X134631948Y-54750000D01*
X134868052Y-54750000D01*
X135101247Y-54713065D01*
X135325802Y-54640102D01*
X135536163Y-54532918D01*
X135536169Y-54532914D01*
X135619104Y-54472658D01*
X135619105Y-54472658D01*
X134920233Y-53773787D01*
X134962292Y-53762518D01*
X135087708Y-53690110D01*
X135190110Y-53587708D01*
X135262518Y-53462292D01*
X135273787Y-53420234D01*
X135972658Y-54119105D01*
X135972658Y-54119104D01*
X136032914Y-54036169D01*
X136032918Y-54036163D01*
X136140102Y-53825802D01*
X136213065Y-53601247D01*
X136250000Y-53368052D01*
X136250000Y-53131947D01*
X136213065Y-52898752D01*
X136140102Y-52674197D01*
X136032914Y-52463828D01*
X135972658Y-52380894D01*
X135972658Y-52380893D01*
X135273787Y-53079765D01*
X135262518Y-53037708D01*
X135190110Y-52912292D01*
X135087708Y-52809890D01*
X134962292Y-52737482D01*
X134920234Y-52726212D01*
X135638126Y-52008320D01*
X135653363Y-52000000D01*
X140848928Y-52000000D01*
X140861874Y-52008320D01*
X141579766Y-52726212D01*
X141537708Y-52737482D01*
X141412292Y-52809890D01*
X141309890Y-52912292D01*
X141237482Y-53037708D01*
X141226212Y-53079766D01*
X140527340Y-52380894D01*
X140467084Y-52463830D01*
X140359897Y-52674197D01*
X140286934Y-52898752D01*
X140250000Y-53131947D01*
X140250000Y-53368052D01*
X140286934Y-53601247D01*
X140359897Y-53825802D01*
X140467087Y-54036174D01*
X140527338Y-54119104D01*
X140527340Y-54119105D01*
X141226212Y-53420233D01*
X141237482Y-53462292D01*
X141309890Y-53587708D01*
X141412292Y-53690110D01*
X141537708Y-53762518D01*
X141579765Y-53773787D01*
X140880893Y-54472658D01*
X140963828Y-54532914D01*
X141174197Y-54640102D01*
X141398752Y-54713065D01*
X141398751Y-54713065D01*
X141631948Y-54750000D01*
X141868052Y-54750000D01*
X142101247Y-54713065D01*
X142325802Y-54640102D01*
X142536163Y-54532918D01*
X142536169Y-54532914D01*
X142619104Y-54472658D01*
X142619105Y-54472658D01*
X141920233Y-53773787D01*
X141962292Y-53762518D01*
X142087708Y-53690110D01*
X142190110Y-53587708D01*
X142262518Y-53462292D01*
X142273787Y-53420234D01*
X142972658Y-54119105D01*
X142972658Y-54119104D01*
X143032914Y-54036169D01*
X143032918Y-54036163D01*
X143140102Y-53825802D01*
X143213065Y-53601247D01*
X143250000Y-53368052D01*
X143250000Y-53131947D01*
X143213065Y-52898752D01*
X143140102Y-52674197D01*
X143032914Y-52463828D01*
X142972658Y-52380894D01*
X142972658Y-52380893D01*
X142273787Y-53079765D01*
X142262518Y-53037708D01*
X142190110Y-52912292D01*
X142087708Y-52809890D01*
X141962292Y-52737482D01*
X141920234Y-52726212D01*
X142638126Y-52008320D01*
X142653363Y-52000000D01*
X147348928Y-52000000D01*
X147361874Y-52008320D01*
X148079766Y-52726212D01*
X148037708Y-52737482D01*
X147912292Y-52809890D01*
X147809890Y-52912292D01*
X147737482Y-53037708D01*
X147726212Y-53079766D01*
X147027340Y-52380894D01*
X146967084Y-52463830D01*
X146859897Y-52674197D01*
X146786934Y-52898752D01*
X146750000Y-53131947D01*
X146750000Y-53368052D01*
X146786934Y-53601247D01*
X146859897Y-53825802D01*
X146967087Y-54036174D01*
X147027338Y-54119104D01*
X147027340Y-54119105D01*
X147726212Y-53420233D01*
X147737482Y-53462292D01*
X147809890Y-53587708D01*
X147912292Y-53690110D01*
X148037708Y-53762518D01*
X148079765Y-53773787D01*
X147380893Y-54472658D01*
X147463828Y-54532914D01*
X147674197Y-54640102D01*
X147898752Y-54713065D01*
X147898751Y-54713065D01*
X148131948Y-54750000D01*
X148368052Y-54750000D01*
X148601247Y-54713065D01*
X148825802Y-54640102D01*
X149036163Y-54532918D01*
X149036169Y-54532914D01*
X149119104Y-54472658D01*
X149119105Y-54472658D01*
X148420233Y-53773787D01*
X148462292Y-53762518D01*
X148587708Y-53690110D01*
X148690110Y-53587708D01*
X148762518Y-53462292D01*
X148773787Y-53420234D01*
X149472658Y-54119105D01*
X149472658Y-54119104D01*
X149532914Y-54036169D01*
X149532918Y-54036163D01*
X149640102Y-53825802D01*
X149713065Y-53601247D01*
X149750000Y-53368052D01*
X149750000Y-53131947D01*
X149713065Y-52898752D01*
X149640102Y-52674197D01*
X149532914Y-52463828D01*
X149472658Y-52380894D01*
X149472658Y-52380893D01*
X148773787Y-53079765D01*
X148762518Y-53037708D01*
X148690110Y-52912292D01*
X148587708Y-52809890D01*
X148462292Y-52737482D01*
X148420234Y-52726212D01*
X149138126Y-52008320D01*
X149153363Y-52000000D01*
X149305168Y-52000000D01*
X150376000Y-52000000D01*
X150443039Y-52019685D01*
X150488794Y-52072489D01*
X150500000Y-52124000D01*
X150500000Y-58876000D01*
X150480315Y-58943039D01*
X150427511Y-58988794D01*
X150376000Y-59000000D01*
X101124000Y-59000000D01*
X101056961Y-58980315D01*
X101011206Y-58927511D01*
X101000000Y-58876000D01*
X101000000Y-52124000D01*
X101019685Y-52056961D01*
X101072489Y-52011206D01*
X101124000Y-52000000D01*
X102194832Y-52000000D01*
X102348928Y-52000000D01*
X102361874Y-52008320D01*
G37*
%TD.AperFunction*%
%TD*%
M02*
